# xmcd
#
# Track frame offsets:
# 150
# 13219
# 28474
# 42277
# 56332
# 70971
# 85421
# 102141
# 116279
# 131996
# 148442
# 164554
# 180753
#
# Disc length: 2613 seconds
#
#
# Revision: 0
# Processed by: cddbd v1.5.1PL0 Copyright (c) Steve Scherf et al.
# Submitted via: FreeRIP 2.80 
#
DISCID=bb0a330d
DTITLE=Os Sungas - Os Sungas
DYEAR=2004
DGENRE=Samba
TTITLE0=Tâ Rolando Um Clima
TTITLE1=Domingo de Manhã
TTITLE2=Bumbum Tremer
TTITLE3=Surfista
TTITLE4=Iô-Iô
TTITLE5=Tchibum
TTITLE6=E Agora
TTITLE7=Demorô (Vai Ficar de Sunga)
TTITLE8=Cadê a Sunga
TTITLE9=Gosto de Solidão
TTITLE10=Você
TTITLE11=Desafio
TTITLE12=Domingo de Manhã
EXTD=
EXTT0=
EXTT1=
EXTT2=
EXTT3=
EXTT4=
EXTT5=
EXTT6=
EXTT7=
EXTT8=
EXTT9=
EXTT10=
EXTT11=
EXTT12=
PLAYORDER=
